# xmcd
#
# Track frame offsets:
#	150
#	11337
#	23631
#	33931
#	48095
#	62705
#	73694
#	85521
#	97568
#	125273
#	138310
#	152015
#	160777
#	189164
#	210422
#	228636
#	254460
#
# Disc length: 3534 seconds
#
# Revision: 0
# Processed by: cddbd v1.4b42PL1 Copyright (c) Steve Scherf et al.
# Submitted via: audiograbber 1.80
#
DISCID=c30dcc11
DTITLE=Johnny Guitar Watson - Johnny Guitar Watson
DYEAR=1900
DGENRE=
TTITLE0=Johnny Guitar
TTITLE1=Ganster of love
TTITLE2=Blues side
TTITLE3=I cried for you
TTITLE4=Witchcraft
TTITLE5=Reconsider baby
TTITLE6=The eagle is back
TTITLE7=One room country shack
TTITLE8=Polka dots and moonbeams
TTITLE9=She moves me
TTITLE10=Someone cares for me
TTITLE11=Looking back
TTITLE12=When did you leave heaven
TTITLE13=I´ll remember april 
TTITLE14=Acoustic intrumental
TTITLE15=Misty
TTITLE16=Exactly like you
EXTD=
EXTT0=
EXTT1=
EXTT2=
EXTT3=
EXTT4=
EXTT5=
EXTT6=
EXTT7=
EXTT8=
EXTT9=
EXTT10=
EXTT11=
EXTT12=
EXTT13=
EXTT14=
EXTT15=
EXTT16=
PLAYORDER=
